<svg width="48" height="30" viewBox="0 0 48 30" fill="none" xmlns="http://www.w3.org/2000/svg">
<path d="M38.3995 19.2821L47.2988 19.2821L37.905 0.000126971L29.0057 0.000126193L38.3995 19.2821Z" fill="#0B92D2"/>
<path d="M20.1062 24.2262L29.0056 24.2262L18.9526 0.000121191L10.0532 0.000120413L20.1062 24.2262Z" fill="#137BC0"/>
<path d="M29.0057 24.2262L20.1063 24.2262L29.0057 0.000122848L37.9051 0.000123626L29.0057 24.2262Z" fill="#0E763F"/>
<path fill-rule="evenodd" clip-rule="evenodd" d="M34.0793 10.4146L37.905 0.00015831L29.0057 0.000157532L34.0793 10.4146Z" fill="#FFD100"/>
<path fill-rule="evenodd" clip-rule="evenodd" d="M37.905 0.00015831L29.0057 0.000157532L34.0793 10.4146L37.905 0.00015831Z" fill="#FFD100"/>
<path d="M8.89937 29.4999L0 29.4999L10.2178 0.000101983L19.1172 0.000102761L8.89937 29.4999Z" fill="#E20613"/>
<path fill-rule="evenodd" clip-rule="evenodd" d="M14.9934 11.9056L19.0422 0.216464L18.9524 -9.68082e-07L10.053 -1.74609e-06L10.1428 0.216463L14.9934 11.9056Z" fill="#0E4B9C"/>
<path fill-rule="evenodd" clip-rule="evenodd" d="M10.2178 -1.73168e-06L10.1428 0.216463L14.9934 11.9056L19.0422 0.216464L19.1172 -9.53674e-07L10.2178 -1.73168e-06Z" fill="#0E4B9C"/>
</svg>
